<svg width="135" height="86" viewBox="0 0 135 86" fill="none" xmlns="http://www.w3.org/2000/svg">
<path d="M0 7C0 3.13 3.134 0 7 0H128C131.866 0 135 3.13 135 7V79C135 82.87 131.866 86 128 86H7C3.134 86 0 82.87 0 79V7Z" fill="#F3F3F3"/>
<path d="M76.228 55.3501L81.932 70.4401C82.216 71.2001 82.191 72.0301 81.862 72.7701C81.532 73.5001 80.925 74.0701 80.174 74.3601C79.946 74.4401 79.71 74.5002 79.469 74.5302C78.795 74.6202 78.112 74.4701 77.531 74.1201C76.949 73.7701 76.502 73.2401 76.261 72.6001L70.93 58.4801" fill="#E7AA6C"/>
<path d="M79.078 75.0602C78.362 75.0602 77.662 74.8402 77.074 74.4302C76.486 74.0302 76.036 73.4502 75.786 72.7802L70.454 58.6602C70.431 58.6002 70.42 58.5301 70.422 58.4601C70.424 58.4001 70.439 58.3301 70.466 58.2701C70.494 58.2101 70.532 58.1601 70.581 58.1101C70.629 58.0701 70.685 58.0301 70.747 58.0101C70.809 57.9901 70.875 57.9701 70.941 57.9801C71.007 57.9801 71.072 57.9901 71.132 58.0201C71.192 58.0501 71.247 58.0901 71.292 58.1401C71.337 58.1801 71.373 58.2402 71.396 58.3002L76.728 72.4202C76.928 72.9502 77.3 73.4001 77.786 73.6901C78.271 73.9801 78.84 74.1002 79.402 74.0302C79.608 74.0002 79.81 73.9601 80.005 73.8801C80.627 73.6401 81.128 73.1602 81.4 72.5502C81.672 71.9402 81.693 71.2501 81.459 70.6201L75.756 55.5302C75.733 55.4702 75.722 55.4101 75.724 55.3401C75.726 55.2701 75.741 55.2101 75.768 55.1501C75.795 55.0901 75.834 55.0301 75.882 54.9901C75.93 54.9401 75.987 54.9101 76.049 54.8801C76.111 54.8601 76.176 54.8501 76.242 54.8501C76.308 54.8501 76.374 54.8701 76.434 54.9001C76.494 54.9201 76.548 54.9601 76.594 55.0101C76.639 55.0601 76.674 55.1202 76.698 55.1802L82.401 70.2701C82.731 71.1401 82.7 72.1201 82.315 72.9701C81.931 73.8301 81.224 74.5001 80.349 74.8301C80.082 74.9301 79.805 75.0002 79.523 75.0302C79.376 75.0502 79.227 75.0602 79.078 75.0602Z" fill="#323C6B"/>
<path d="M52.688 58.4801L47.357 72.6001C47.116 73.2401 46.667 73.7801 46.083 74.1301C45.499 74.4801 44.813 74.6202 44.137 74.5302C43.897 74.5002 43.661 74.4401 43.433 74.3601C42.682 74.0701 42.075 73.5001 41.745 72.7601C41.416 72.0301 41.39 71.2001 41.675 70.4401L47.379 55.3501" fill="#E7AA6C"/>
<path d="M44.527 75.06C44.378 75.06 44.228 75.0499 44.08 75.0299C43.801 74.9999 43.528 74.9299 43.265 74.8299C42.388 74.4999 41.6801 73.8299 41.2931 72.9699C40.9071 72.1199 40.875 71.1399 41.203 70.2599L46.908 55.18C46.956 55.05 47.05 54.9499 47.172 54.8899C47.294 54.8399 47.432 54.8399 47.557 54.8799C47.682 54.9299 47.783 55.0199 47.838 55.1499C47.893 55.2699 47.897 55.4099 47.85 55.5299L42.146 70.6199C41.91 71.2499 41.932 71.94 42.207 72.56C42.481 73.17 42.986 73.6499 43.612 73.8899C43.803 73.9599 44.001 74.0099 44.203 74.0299C44.766 74.1099 45.336 73.9899 45.822 73.6999C46.308 73.3999 46.681 72.96 46.88 72.42L52.212 58.3C52.235 58.24 52.271 58.1899 52.316 58.1399C52.361 58.0899 52.415 58.0499 52.476 58.0199C52.536 57.9999 52.601 57.9799 52.667 57.9799C52.733 57.9799 52.799 57.9899 52.861 58.0099C52.923 58.0299 52.979 58.0699 53.027 58.1099C53.076 58.1599 53.114 58.2099 53.141 58.2699C53.169 58.3399 53.184 58.3999 53.186 58.4699C53.188 58.5299 53.177 58.6 53.153 58.66L47.822 72.7799C47.571 73.4499 47.121 74.0299 46.532 74.4399C45.943 74.8399 45.243 75.06 44.527 75.06Z" fill="#323C6B"/>
<path d="M82.918 77C82.815 77 82.714 76.97 82.629 76.91C82.545 76.85 82.481 76.76 82.446 76.67C82.411 76.57 82.407 76.46 82.434 76.36C82.461 76.26 82.518 76.18 82.598 76.11C83.488 75.37 84.125 74.38 84.423 73.26C84.721 72.15 84.664 70.96 84.26 69.88L84.073 69.39C84.049 69.33 84.038 69.26 84.041 69.2C84.043 69.13 84.058 69.07 84.085 69.01C84.112 68.95 84.151 68.89 84.199 68.85C84.247 68.8 84.304 68.77 84.366 68.74C84.427 68.72 84.493 68.71 84.559 68.71C84.625 68.71 84.69 68.73 84.751 68.75C84.811 68.78 84.865 68.82 84.91 68.87C84.956 68.92 84.991 68.97 85.014 69.03L85.203 69.53C85.68 70.81 85.747 72.2 85.396 73.52C85.044 74.84 84.29 76.02 83.239 76.89C83.148 76.96 83.035 77 82.918 77Z" fill="#323C6B"/>
<path d="M83.724 67.5499C83.622 67.5499 83.522 67.5198 83.438 67.4598C83.354 67.3998 83.29 67.3198 83.254 67.2198L83.011 66.5798C82.988 66.5198 82.977 66.4499 82.979 66.3899C82.981 66.3199 82.996 66.2598 83.023 66.1998C83.05 66.1398 83.089 66.0799 83.137 66.0399C83.185 65.9899 83.242 65.9599 83.304 65.9299C83.366 65.9099 83.431 65.8999 83.498 65.8999C83.564 65.8999 83.629 65.9198 83.689 65.9398C83.749 65.9698 83.803 66.0099 83.849 66.0599C83.894 66.1099 83.929 66.1598 83.953 66.2198L84.195 66.8699C84.224 66.9399 84.234 67.0299 84.224 67.1099C84.214 67.1899 84.185 67.2598 84.138 67.3298C84.092 67.3998 84.03 67.4499 83.958 67.4899C83.886 67.5299 83.806 67.5499 83.724 67.5499Z" fill="#323C6B"/>
<path d="M61.804 61.36C75.288 61.36 86.219 50.4299 86.219 36.9399C86.219 23.4599 75.288 12.53 61.804 12.53C48.32 12.53 37.389 23.4599 37.389 36.9399C37.389 50.4299 48.32 61.36 61.804 61.36Z" fill="#E21F16"/>
<path d="M80.03 53.1901C83.397 48.0201 84.682 41.7701 83.626 35.6901C82.571 29.6101 79.252 24.1602 74.338 20.4302C69.424 16.7002 63.28 14.9701 57.142 15.5901C51.004 16.2101 45.327 19.1201 41.254 23.7601C43.074 20.9201 45.46 18.5001 48.263 16.6301C51.065 14.7601 54.224 13.5001 57.54 12.9101C60.856 12.3201 64.258 12.4301 67.531 13.2201C70.804 14.0101 73.879 15.4701 76.561 17.5001C79.243 19.5401 81.476 22.1102 83.117 25.0502C84.759 27.9902 85.774 31.2401 86.1 34.5901C86.426 37.9401 86.055 41.3201 85.01 44.5301C83.965 47.7301 82.27 50.6801 80.03 53.1901Z" fill="#EA6453"/>
<path d="M61.804 53.5798C58.514 53.5798 55.297 52.5999 52.561 50.7799C49.825 48.9499 47.693 46.3499 46.434 43.3099C45.175 40.2699 44.846 36.9198 45.488 33.6998C46.13 30.4698 47.714 27.4999 50.041 25.1799C52.368 22.8499 55.332 21.2699 58.56 20.6299C61.787 19.9799 65.132 20.3098 68.172 21.5698C71.212 22.8298 73.81 24.9598 75.638 27.6998C77.466 30.4398 78.442 33.6498 78.442 36.9398C78.437 41.3498 76.682 45.5798 73.563 48.6998C70.444 51.8198 66.215 53.5698 61.804 53.5798Z" fill="#EEEFEE"/>
<path d="M78.441 36.9498C78.441 39.3998 77.898 41.8199 76.85 44.0399C75.803 46.2599 74.278 48.2199 72.384 49.7799C74.995 46.5799 76.321 42.5199 76.103 38.3999C75.886 34.2699 74.142 30.3798 71.21 27.4698C68.278 24.5598 64.368 22.8499 60.242 22.6599C56.116 22.4799 52.069 23.8298 48.889 26.4698C51.053 23.7998 53.992 21.8599 57.301 20.9299C60.611 19.9999 64.128 20.1099 67.368 21.2599C70.609 22.4099 73.414 24.5398 75.397 27.3498C77.38 30.1598 78.444 33.5098 78.441 36.9498Z" fill="#E1E6E9"/>
<path d="M61.804 45.8002C66.697 45.8002 70.663 41.8401 70.663 36.9401C70.663 32.0501 66.697 28.0801 61.804 28.0801C56.911 28.0801 52.945 32.0501 52.945 36.9401C52.945 41.8401 56.911 45.8002 61.804 45.8002Z" fill="#E21F16"/>
<path d="M68.067 43.1999C68.993 41.3199 69.22 39.17 68.708 37.14C68.196 35.1 66.978 33.32 65.272 32.1C63.565 30.88 61.481 30.3 59.391 30.48C57.3 30.65 55.339 31.56 53.857 33.04C54.424 31.89 55.235 30.8799 56.234 30.0699C57.233 29.2599 58.395 28.68 59.641 28.37C60.887 28.05 62.186 28.01 63.448 28.25C64.711 28.49 65.906 29 66.951 29.75C67.996 30.5 68.866 31.4599 69.5 32.5799C70.134 33.6999 70.518 34.94 70.624 36.22C70.73 37.5 70.557 38.79 70.115 39.99C69.673 41.2 68.975 42.2999 68.067 43.1999Z" fill="#EA6453"/>
<path d="M61.804 37.9499C61.589 37.9499 61.381 37.88 61.208 37.75C61.035 37.63 60.908 37.45 60.843 37.24C60.779 37.04 60.782 36.82 60.851 36.62C60.92 36.42 61.051 36.24 61.227 36.12L92.223 14.51C92.442 14.36 92.713 14.3 92.976 14.34C93.239 14.39 93.472 14.54 93.625 14.76C93.778 14.98 93.837 15.25 93.79 15.51C93.744 15.77 93.594 16.01 93.375 16.16L62.379 37.77C62.21 37.89 62.009 37.9499 61.804 37.9499Z" fill="#323C6B"/>
<path d="M94.337 14.22L84.732 20.95L85.324 14.22L94.928 7.5L94.337 14.22Z" fill="#E21F16"/>
<path d="M84.732 21.45C84.662 21.45 84.592 21.44 84.528 21.41C84.464 21.38 84.407 21.34 84.359 21.29C84.312 21.24 84.276 21.17 84.253 21.11C84.231 21.04 84.222 20.97 84.229 20.9L84.82 14.1801C84.826 14.1101 84.849 14.04 84.885 13.97C84.922 13.91 84.972 13.8501 85.032 13.8101L94.637 7.08997C94.716 7.03997 94.809 7 94.904 7C95 7 95.095 7.01995 95.178 7.06995C95.261 7.11995 95.328 7.19002 95.373 7.27002C95.417 7.36002 95.436 7.45005 95.427 7.55005L94.839 14.27C94.832 14.34 94.81 14.41 94.773 14.48C94.737 14.54 94.686 14.59 94.626 14.64L85.02 21.36C84.936 21.42 84.835 21.45 84.732 21.45ZM85.803 14.5L85.326 19.92L93.855 13.95L94.336 8.53003L85.803 14.5Z" fill="#323C6B"/>
<path d="M94.337 14.22L84.732 20.95L91.264 22.64L100.868 15.92L94.337 14.22Z" fill="#E21F16"/>
<path d="M91.264 23.1398C91.221 23.1398 91.179 23.1398 91.138 23.1198L84.606 21.4299C84.513 21.4099 84.429 21.3599 84.363 21.2899C84.298 21.2199 84.254 21.1299 84.237 21.0299C84.219 20.9399 84.23 20.8398 84.266 20.7498C84.303 20.6598 84.364 20.5899 84.443 20.5299L94.047 13.8099C94.107 13.7699 94.175 13.7398 94.247 13.7298C94.318 13.7098 94.391 13.7198 94.462 13.7298L100.994 15.4299C101.087 15.4499 101.171 15.4998 101.237 15.5698C101.302 15.6398 101.346 15.7298 101.363 15.8298C101.381 15.9198 101.37 16.0198 101.334 16.1098C101.297 16.1998 101.236 16.2698 101.157 16.3298L91.553 23.0499C91.468 23.1099 91.367 23.1398 91.264 23.1398ZM85.914 20.7298L91.166 22.0898L99.687 16.1198L94.437 14.7698L85.914 20.7298Z" fill="#323C6B"/>
<path d="M34.504 35.09H34.46C34.327 35.08 34.204 35.01 34.118 34.91C34.032 34.81 33.99 34.68 34.002 34.54C34.251 31.64 34.956 28.8 36.089 26.11C36.115 26.05 36.152 26 36.199 25.95C36.246 25.91 36.302 25.87 36.363 25.84C36.425 25.82 36.49 25.8101 36.556 25.8101C36.622 25.8101 36.688 25.82 36.749 25.85C36.81 25.87 36.865 25.91 36.911 25.96C36.958 26 36.994 26.06 37.019 26.12C37.044 26.18 37.057 26.2501 37.056 26.3101C37.056 26.3801 37.042 26.44 37.017 26.51C35.924 29.09 35.245 31.83 35.005 34.63C34.994 34.75 34.937 34.87 34.844 34.95C34.751 35.04 34.63 35.09 34.504 35.09Z" fill="#323C6B"/>
<path d="M37.585 24.65C37.503 24.65 37.423 24.6299 37.351 24.5899C37.292 24.5599 37.24 24.5199 37.198 24.4699C37.156 24.4199 37.124 24.36 37.104 24.29C37.085 24.23 37.078 24.17 37.084 24.1C37.09 24.03 37.109 23.97 37.14 23.91C37.231 23.74 37.328 23.58 37.425 23.41L37.577 23.15C37.644 23.03 37.754 22.95 37.883 22.91C38.012 22.88 38.15 22.8899 38.266 22.9599C38.381 23.0299 38.466 23.14 38.501 23.27C38.536 23.4 38.518 23.53 38.451 23.65L38.292 23.92C38.202 24.08 38.112 24.23 38.03 24.38C37.987 24.46 37.922 24.5299 37.844 24.5799C37.766 24.6299 37.676 24.65 37.585 24.65Z" fill="#323C6B"/>
<path d="M61.802 61.86C56.874 61.86 52.056 60.4 47.958 57.66C43.861 54.92 40.667 51.03 38.781 46.48C36.895 41.92 36.402 36.9099 37.364 32.0799C38.325 27.2499 40.699 22.8099 44.184 19.3199C47.668 15.8399 52.108 13.46 56.942 12.5C61.776 11.54 66.786 12.04 71.339 13.92C75.892 15.81 79.784 19 82.522 23.1C85.26 27.2 86.721 32.0099 86.721 36.9399C86.713 43.5499 84.085 49.88 79.414 54.55C74.742 59.23 68.408 61.85 61.802 61.86ZM61.802 13.03C57.073 13.03 52.45 14.43 48.517 17.06C44.585 19.69 41.52 23.42 39.711 27.79C37.901 32.16 37.428 36.97 38.35 41.61C39.273 46.25 41.551 50.51 44.895 53.85C48.239 57.2 52.5 59.47 57.138 60.4C61.777 61.32 66.585 60.84 70.954 59.03C75.323 57.22 79.058 54.16 81.685 50.23C84.313 46.3 85.715 41.6699 85.715 36.9399C85.707 30.5999 83.185 24.53 78.702 20.04C74.219 15.56 68.141 13.04 61.802 13.03Z" fill="#323C6B"/>
<path d="M61.802 46.3002C59.951 46.3002 58.141 45.7602 56.601 44.7302C55.062 43.7002 53.862 42.2402 53.154 40.5202C52.445 38.8102 52.26 36.9302 52.621 35.1202C52.983 33.3002 53.874 31.6301 55.184 30.3201C56.493 29.0101 58.161 28.1202 59.977 27.7602C61.793 27.4002 63.675 27.5902 65.386 28.2902C67.096 29.0002 68.559 30.2002 69.587 31.7402C70.616 33.2802 71.165 35.0901 71.165 36.9401C71.162 39.4201 70.174 41.8002 68.419 43.5602C66.664 45.3102 64.284 46.3002 61.802 46.3002ZM61.802 28.5901C60.15 28.5901 58.534 29.0802 57.16 30.0002C55.786 30.9102 54.715 32.2202 54.083 33.7502C53.451 35.2702 53.286 36.9501 53.608 38.5701C53.931 40.1901 54.726 41.6801 55.895 42.8501C57.064 44.0201 58.553 44.8202 60.173 45.1402C61.794 45.4602 63.474 45.2902 65.001 44.6602C66.528 44.0302 67.833 42.9601 68.751 41.5801C69.669 40.2101 70.159 38.6001 70.159 36.9401C70.156 34.7301 69.275 32.6002 67.708 31.0402C66.141 29.4702 64.017 28.5901 61.802 28.5901Z" fill="#323C6B"/>
<path d="M61.802 54.0799C58.412 54.0799 55.099 53.0799 52.28 51.1899C49.462 49.3099 47.265 46.6299 45.968 43.4999C44.671 40.3699 44.332 36.9199 44.994 33.5999C45.655 30.2699 47.288 27.2199 49.685 24.8199C52.082 22.4299 55.136 20.7899 58.461 20.1299C61.786 19.4699 65.232 19.8099 68.364 21.1099C71.495 22.3999 74.172 24.6 76.056 27.42C77.939 30.24 78.9439 33.5499 78.9439 36.9399C78.9389 41.4899 77.131 45.84 73.918 49.06C70.704 52.27 66.347 54.0799 61.802 54.0799ZM61.802 20.81C58.611 20.81 55.492 21.7599 52.839 23.5299C50.186 25.2999 48.118 27.8199 46.898 30.7699C45.677 33.7199 45.358 36.9599 45.98 40.0899C46.603 43.2199 48.14 46.0999 50.396 48.3499C52.653 50.6099 55.528 52.1399 58.657 52.7699C61.787 53.3899 65.031 53.0699 67.979 51.8499C70.927 50.6299 73.446 48.5599 75.219 45.9099C76.992 43.2499 77.938 40.1299 77.938 36.9399C77.933 32.6699 76.231 28.5599 73.206 25.5399C70.181 22.5099 66.08 20.81 61.802 20.81Z" fill="#323C6B"/>
<path d="M56.913 57.5101C56.86 57.5101 56.808 57.5001 56.756 57.4901C53.285 56.6301 50.086 54.9101 47.457 52.4901C47.394 52.4301 47.343 52.3602 47.307 52.2802C47.271 52.2002 47.25 52.1202 47.247 52.0302C47.243 51.9502 47.257 51.8602 47.286 51.7802C47.316 51.7002 47.361 51.6202 47.419 51.5602C47.477 51.5002 47.547 51.4502 47.625 51.4102C47.703 51.3702 47.788 51.3501 47.873 51.3501C47.959 51.3501 48.045 51.3601 48.125 51.3901C48.206 51.4201 48.28 51.4701 48.343 51.5201C50.809 53.8001 53.81 55.4101 57.066 56.2201C57.222 56.2601 57.359 56.3501 57.45 56.4801C57.542 56.6101 57.582 56.7702 57.562 56.9302C57.543 57.0902 57.466 57.2401 57.346 57.3501C57.226 57.4501 57.071 57.5101 56.911 57.5101H56.913Z" fill="white"/>
<path d="M45.784 50.39C45.686 50.39 45.589 50.3699 45.501 50.3299C45.413 50.2899 45.335 50.23 45.274 50.15C45.14 49.98 45.014 49.81 44.889 49.64L44.73 49.41C44.68 49.35 44.643 49.27 44.622 49.18C44.602 49.1 44.598 49.01 44.611 48.93C44.624 48.84 44.654 48.7599 44.698 48.6899C44.743 48.6099 44.801 48.55 44.871 48.5C45.011 48.4 45.186 48.35 45.357 48.38C45.442 48.39 45.524 48.42 45.597 48.47C45.671 48.51 45.735 48.57 45.786 48.64L45.953 48.87C46.063 49.03 46.175 49.1799 46.294 49.3299C46.371 49.4299 46.419 49.54 46.433 49.66C46.448 49.79 46.427 49.91 46.373 50.02C46.32 50.13 46.236 50.23 46.132 50.29C46.028 50.36 45.907 50.39 45.784 50.39Z" fill="white"/>
</svg>
