<svg width="135" height="86" viewBox="0 0 135 86" fill="none" xmlns="http://www.w3.org/2000/svg">
<path d="M0 7C0 3.13 3.13 0 7 0H128C131.87 0 135 3.13 135 7V79C135 82.87 131.87 86 128 86H7C3.13 86 0 82.87 0 79V7Z" fill="#F3F3F3"/>
<path d="M76.09 46.3799C85.15 46.3799 92.49 39.0298 92.49 29.9698C92.49 20.9098 85.15 13.5698 76.09 13.5698C67.03 13.5698 59.6801 20.9098 59.6801 29.9698C59.6801 39.0298 67.03 46.3799 76.09 46.3799Z" fill="#0175BD"/>
<path d="M92.49 29.9699C92.5 32.6299 91.85 35.2499 90.62 37.5999C89.38 39.9499 87.6 41.9699 85.41 43.4799C88.26 40.5599 89.9199 36.6899 90.0699 32.6099C90.2199 28.5299 88.84 24.55 86.2 21.43C83.57 18.31 79.87 16.2899 75.83 15.7599C71.78 15.2199 67.69 16.21 64.33 18.54C66.61 16.2 69.53 14.59 72.72 13.92C75.92 13.25 79.24 13.55 82.26 14.77C85.29 16 87.87 18.1 89.7 20.81C91.52 23.52 92.49 26.7099 92.49 29.9699Z" fill="#0175BD"/>
<path d="M69.6301 36.3002C69.2901 34.2102 69.1201 32.0901 69.1301 29.9701C69.1301 27.8101 69.3001 25.6501 69.6501 23.5101L69.73 23.0302L70.21 23.1301C70.37 23.1501 70.54 23.1501 70.7 23.1001C70.85 23.0601 71.0001 22.9801 71.1301 22.8801C71.2601 22.7701 71.3601 22.6401 71.4301 22.4901C71.5001 22.3501 71.5401 22.1801 71.5501 22.0201C71.5501 21.7701 71.4701 21.5201 71.3101 21.3201C71.1601 21.1201 70.94 20.9802 70.7 20.9202L70.22 20.8102L70.36 20.3401C71.64 15.7401 73.73 13.1001 76.09 13.1001C78.46 13.1001 80.56 15.7602 81.84 20.4202L80.9301 20.6702C79.8001 16.5802 77.94 14.0402 76.09 14.0402C74.28 14.0402 72.5401 16.3302 71.3901 20.1802C71.7901 20.3902 72.1101 20.7301 72.3001 21.1401C72.4901 21.5601 72.54 22.0201 72.44 22.4701C72.34 22.9101 72.1001 23.3101 71.7501 23.6101C71.4101 23.9001 70.9701 24.0701 70.5201 24.1001C70.2201 26.0401 70.08 28.0001 70.08 29.9701C70.07 32.0401 70.24 34.1101 70.57 36.1501L69.6301 36.3002Z" fill="#323C6B"/>
<path d="M76.09 46.85C73.71 46.85 71.6099 44.17 70.3199 39.48L71.23 39.23C72.39 43.41 74.2 45.91 76.09 45.91C77.91 45.91 79.72 43.48 80.86 39.54C80.59 39.37 80.37 39.14 80.21 38.86C80.04 38.59 79.94 38.29 79.92 37.97C79.91 37.91 79.91 37.86 79.91 37.8C79.91 37.3 80.09 36.82 80.41 36.45C80.74 36.07 81.1901 35.82 81.6801 35.74C81.9601 33.83 82.1 31.91 82.09 29.97C82.1 27.87 81.94 25.7699 81.59 23.6899L82.52 23.53C82.88 25.66 83.05 27.82 83.04 29.97C83.05 32.09 82.88 34.2 82.55 36.28L82.47 36.76L81.99 36.67C81.73 36.67 81.47 36.76 81.26 36.92C81.06 37.09 80.92 37.33 80.87 37.59C80.82 37.85 80.87 38.12 81 38.35C81.13 38.58 81.33 38.76 81.58 38.85L81.99 39L81.87 39.42C80.59 44.14 78.48 46.85 76.09 46.85Z" fill="#323C6B"/>
<path d="M61.74 21.55H68.8199V22.49H61.74V21.55Z" fill="#323C6B"/>
<path d="M83.59 21.55H90.4399V22.49H83.59V21.55Z" fill="#323C6B"/>
<path d="M72.03 21.55H80.38V22.49H72.03V21.55Z" fill="#323C6B"/>
<path d="M72.01 37.46H80.39V38.4H72.01V37.46Z" fill="#323C6B"/>
<path d="M61.74 37.46H68.83V38.4H61.74V37.46Z" fill="#323C6B"/>
<path d="M83.58 37.46H90.4399V38.4H83.58V37.46Z" fill="#323C6B"/>
<path d="M59.6801 29.5H74.49V30.4399H59.6801V29.5Z" fill="#323C6B"/>
<path d="M77.6899 29.5H92.5V30.4399H77.6899V29.5Z" fill="#323C6B"/>
<path d="M72.02 22.0201C72.02 22.4401 71.86 22.8502 71.55 23.1602C71.25 23.4602 70.84 23.6301 70.42 23.6301C70.32 23.6301 70.21 23.6101 70.12 23.5901C69.73 23.5101 69.39 23.2901 69.16 22.9701C68.92 22.6501 68.81 22.2601 68.85 21.8701C68.89 21.4801 69.07 21.1101 69.36 20.8401C69.65 20.5701 70.02 20.4202 70.42 20.4102C70.55 20.4102 70.68 20.4301 70.81 20.4701C71.16 20.5501 71.46 20.7502 71.68 21.0302C71.91 21.3102 72.02 21.6601 72.02 22.0201Z" fill="#EEEFEE"/>
<path d="M70.42 24.1C70.29 24.1 70.15 24.0801 70.03 24.0601C69.51 23.9501 69.05 23.65 68.75 23.21C68.45 22.78 68.32 22.25 68.4 21.72C68.48 21.2 68.76 20.73 69.18 20.41C69.6 20.08 70.13 19.93 70.66 19.99C71.18 20.05 71.67 20.3 72.01 20.71C72.35 21.11 72.5199 21.63 72.4899 22.16C72.4599 22.69 72.2299 23.18 71.8399 23.54C71.4599 23.9 70.95 24.1 70.42 24.1ZM70.42 20.88C70.19 20.88 69.97 20.95 69.79 21.07C69.6 21.2 69.4599 21.37 69.3699 21.58C69.2799 21.79 69.26 22.02 69.31 22.24C69.35 22.46 69.4599 22.66 69.6199 22.82C69.7699 22.98 69.9799 23.09 70.1999 23.13C70.4199 23.17 70.6499 23.15 70.8499 23.07C71.0599 22.98 71.2399 22.83 71.3599 22.65C71.4899 22.46 71.55 22.24 71.55 22.02C71.56 21.76 71.4699 21.52 71.3199 21.32C71.1599 21.12 70.9499 20.98 70.6999 20.92C70.6099 20.9 70.51 20.88 70.42 20.89V20.88Z" fill="#323C6B"/>
<path d="M83.59 37.8C83.59 37.85 83.59 37.8901 83.58 37.9301C83.55 38.3301 83.3699 38.7 83.0699 38.98C82.7799 39.25 82.39 39.4 81.99 39.4C81.79 39.4 81.6 39.36 81.42 39.29C81.14 39.19 80.89 39 80.71 38.76C80.52 38.52 80.41 38.2301 80.39 37.9301C80.38 37.8901 80.38 37.85 80.38 37.8C80.38 37.59 80.42 37.3799 80.51 37.1899C80.59 36.9899 80.7 36.81 80.85 36.66C81 36.51 81.18 36.3999 81.38 36.3199C81.57 36.2299 81.78 36.1899 81.99 36.1899C82.02 36.1899 82.05 36.19 82.09 36.2C82.49 36.22 82.88 36.4 83.16 36.7C83.44 37 83.59 37.39 83.59 37.8Z" fill="#EEEFEE"/>
<path d="M81.99 39.87C81.73 39.87 81.48 39.82 81.24 39.73C80.88 39.59 80.56 39.35 80.33 39.04C80.09 38.73 79.95 38.36 79.92 37.97C79.91 37.91 79.91 37.86 79.91 37.8C79.91 37.25 80.13 36.72 80.52 36.33C80.91 35.94 81.44 35.72 81.99 35.72C82.05 35.72 82.1201 35.73 82.1801 35.74C82.7001 35.78 83.18 36.01 83.53 36.4C83.88 36.78 84.0701 37.28 84.0601 37.8C84.0601 37.87 84.06 37.93 84.05 38C84 38.51 83.76 38.99 83.38 39.33C83 39.68 82.51 39.87 81.99 39.87ZM82.05 36.67C81.78 36.65 81.51 36.73 81.29 36.89C81.08 37.06 80.93 37.2901 80.87 37.5601C80.81 37.8201 80.85 38.1 80.98 38.34C81.12 38.58 81.33 38.76 81.58 38.85C81.75 38.92 81.92 38.9401 82.1 38.9301C82.27 38.9101 82.44 38.86 82.59 38.76C82.74 38.67 82.87 38.54 82.96 38.39C83.05 38.24 83.1 38.07 83.11 37.9L83.12 37.8C83.12 37.52 83.0101 37.24 82.8101 37.03C82.6201 36.82 82.3501 36.6901 82.0601 36.6801L82.05 36.67Z" fill="#323C6B"/>
<path d="M72.02 37.79C72.02 37.37 71.86 36.96 71.55 36.66C71.25 36.36 70.84 36.1899 70.42 36.1899C70.32 36.1899 70.21 36.2 70.12 36.22C69.73 36.3 69.39 36.52 69.16 36.84C68.92 37.16 68.81 37.5499 68.85 37.9399C68.89 38.3399 69.07 38.7 69.36 38.97C69.65 39.24 70.02 39.39 70.42 39.4C70.55 39.4 70.68 39.38 70.81 39.35C71.16 39.26 71.46 39.06 71.68 38.78C71.91 38.5 72.02 38.15 72.02 37.79Z" fill="#EEEFEE"/>
<path d="M70.4201 39.87C69.9101 39.87 69.4101 39.6699 69.0401 39.3199C68.6601 38.9699 68.43 38.5 68.38 37.99C68.33 37.48 68.4701 36.9701 68.7801 36.5601C69.0801 36.1401 69.5301 35.86 70.0301 35.76C70.1601 35.73 70.2901 35.72 70.4201 35.72C70.9201 35.72 71.4001 35.91 71.7801 36.25C72.1501 36.58 72.39 37.04 72.45 37.54C72.52 38.04 72.39 38.55 72.11 38.96C71.83 39.38 71.4101 39.6801 70.9201 39.8101C70.7601 39.8501 70.5901 39.87 70.4201 39.87ZM70.4201 36.66C70.3501 36.66 70.28 36.6701 70.21 36.6801C69.93 36.7401 69.68 36.9 69.52 37.14C69.35 37.37 69.29 37.66 69.33 37.95C69.38 38.23 69.53 38.48 69.76 38.66C69.98 38.83 70.2701 38.91 70.5501 38.88C70.8401 38.85 71.1001 38.71 71.2901 38.49C71.4701 38.27 71.5601 37.99 71.5501 37.7C71.5301 37.42 71.4 37.15 71.19 36.95C70.98 36.76 70.7001 36.65 70.4201 36.66Z" fill="#323C6B"/>
<path d="M83.59 22.0101C83.59 21.9701 83.59 21.9201 83.58 21.8801C83.55 21.4801 83.3699 21.1101 83.0699 20.8401C82.7799 20.5601 82.39 20.4102 81.99 20.4102C81.79 20.4102 81.6 20.4501 81.42 20.5201C81.14 20.6301 80.89 20.8102 80.71 21.0502C80.52 21.2902 80.41 21.5801 80.39 21.8801C80.38 21.9201 80.38 21.9701 80.38 22.0101C80.38 22.2201 80.42 22.4301 80.51 22.6301C80.59 22.8201 80.7 23.0001 80.85 23.1501C81 23.3001 81.18 23.4201 81.38 23.5001C81.57 23.5801 81.78 23.6201 81.99 23.6201C82.02 23.6201 82.05 23.6201 82.09 23.6101C82.49 23.5901 82.88 23.4101 83.16 23.1101C83.44 22.8101 83.59 22.4201 83.59 22.0101Z" fill="#EEEFEE"/>
<path d="M81.99 24.09C81.44 24.09 80.91 23.87 80.52 23.48C80.13 23.09 79.91 22.56 79.91 22.01C79.91 21.94 79.91 21.8801 79.92 21.8101C79.96 21.4301 80.1 21.06 80.34 20.75C80.57 20.44 80.89 20.21 81.26 20.08C81.49 19.98 81.74 19.9399 81.99 19.9399C82.51 19.9399 83.01 20.14 83.39 20.49C83.77 20.84 84.01 21.32 84.05 21.84C84.06 21.9 84.0601 21.95 84.0601 22.01C84.0601 22.54 83.86 23.0501 83.5 23.4301C83.14 23.8201 82.64 24.05 82.11 24.08C82.07 24.09 82.03 24.09 81.99 24.09ZM81.99 20.89C81.86 20.88 81.72 20.91 81.6 20.96C81.4 21.03 81.22 21.16 81.09 21.33C80.96 21.5 80.88 21.71 80.86 21.92C80.85 22.07 80.87 22.23 80.91 22.37C80.96 22.51 81.04 22.65 81.14 22.76C81.24 22.87 81.36 22.97 81.5 23.03C81.64 23.1 81.7899 23.14 81.9399 23.14C82.0899 23.15 82.24 23.1199 82.39 23.0699C82.53 23.0199 82.66 22.93 82.77 22.83C82.88 22.72 82.96 22.6 83.02 22.46C83.08 22.32 83.12 22.17 83.12 22.02V21.95C83.1 21.66 82.97 21.39 82.76 21.2C82.55 21 82.28 20.89 81.99 20.89Z" fill="#323C6B"/>
<path d="M76.09 31.5801C76.97 31.5801 77.6899 30.8601 77.6899 29.9701C77.6899 29.0901 76.97 28.3701 76.09 28.3701C75.2 28.3701 74.48 29.0901 74.48 29.9701C74.48 30.8601 75.2 31.5801 76.09 31.5801Z" fill="#EEEFEE"/>
<path d="M76.0899 32.0501C75.6799 32.0501 75.27 31.93 74.93 31.7C74.59 31.47 74.32 31.1501 74.16 30.7701C74.01 30.3901 73.97 29.9701 74.05 29.5601C74.13 29.1601 74.32 28.7901 74.62 28.5001C74.91 28.2101 75.28 28.0101 75.68 27.9301C76.08 27.8501 76.5 27.8901 76.88 28.0501C77.26 28.2001 77.5899 28.4701 77.8199 28.8101C78.0499 29.1601 78.17 29.5601 78.17 29.9701C78.17 30.2401 78.11 30.5101 78.01 30.7701C77.91 31.0201 77.75 31.25 77.56 31.44C77.37 31.63 77.14 31.7901 76.88 31.8901C76.63 32.0001 76.3599 32.0501 76.0899 32.0501ZM76.0899 28.8401C75.8599 28.8401 75.6399 28.9101 75.4599 29.0301C75.2699 29.1601 75.12 29.3401 75.04 29.5401C74.95 29.7501 74.9299 29.98 74.9699 30.2C75.0199 30.42 75.13 30.6201 75.28 30.7801C75.44 30.9401 75.65 31.05 75.87 31.09C76.09 31.13 76.31 31.1101 76.52 31.0301C76.73 30.9401 76.91 30.7901 77.03 30.6101C77.16 30.4201 77.2199 30.2001 77.2199 29.9801C77.2199 29.6801 77.1 29.3901 76.89 29.1701C76.68 28.9601 76.3899 28.8401 76.0899 28.8401Z" fill="#323C6B"/>
<path d="M66.49 58.0898H73.46C73.89 58.0898 74.31 57.9199 74.62 57.6099C74.93 57.2999 75.11 56.8798 75.11 56.4498V54.1499C75.11 53.7199 74.93 53.2999 74.62 52.9899C74.31 52.6799 73.89 52.4999 73.46 52.4999H65.1801C64.2201 50.9999 62.89 49.7699 61.33 48.9099C59.77 48.0599 58.01 47.6099 56.23 47.6099H52.63V65.4799L70.14 71.1099C70.53 71.2299 70.95 71.2499 71.35 71.1799C71.76 71.1099 72.14 70.9498 72.47 70.7098L94.3199 55.1998C94.6399 54.9698 94.87 54.6299 94.95 54.2399C95.03 53.8499 94.97 53.4499 94.76 53.1099L93.4 50.8099C93.21 50.4799 92.89 50.2299 92.52 50.1099C92.15 49.9899 91.75 50.0099 91.39 50.1699L74.55 57.6799" fill="#EEEFEE"/>
<path d="M94.3199 55.2001L72.48 70.7101C72.14 70.9501 71.76 71.1102 71.35 71.1702C70.95 71.2402 70.53 71.2201 70.14 71.1101L52.63 65.4801V62.4001L69.41 67.8002C69.81 67.9102 70.22 67.9301 70.63 67.8601C71.03 67.7901 71.41 67.6301 71.75 67.3901L93.59 51.8901C93.7 51.8101 93.8 51.7201 93.88 51.6201L94.76 53.1101C94.96 53.4501 95.03 53.8501 94.95 54.2401C94.86 54.6301 94.6399 54.9701 94.3199 55.2001Z" fill="#E1E6E9"/>
<path d="M54.12 65.9698C54.12 65.9698 62.5799 62.6798 62.6899 62.6498C63.0499 62.5698 63.44 62.5698 63.8 62.6498C64.17 62.7198 64.52 62.8798 64.83 63.0998C65.14 63.3098 65.39 63.5999 65.58 63.9199C65.78 64.2499 65.8999 64.6098 65.9399 64.9798L66.62 69.9798L54.12 65.9698Z" fill="#E21F16"/>
<path d="M67.1899 70.66L52.71 66.01L53.95 65.52C62.43 62.23 62.5301 62.2099 62.5601 62.1999C62.9701 62.0899 63.3999 62.07 63.8199 62.15C64.2399 62.22 64.64 62.39 64.99 62.63C65.38 62.89 65.7 63.23 65.95 63.62C66.19 64.02 66.35 64.46 66.41 64.92L67.1899 70.66ZM55.54 65.93L66.05 69.3L65.47 65.04C65.42 64.72 65.31 64.4 65.14 64.12C64.96 63.84 64.73 63.6 64.46 63.41C64.22 63.25 63.95 63.1299 63.66 63.0799C63.38 63.0299 63.08 63.04 62.8 63.11C62.63 63.17 58.26 64.87 55.54 65.92V65.93Z" fill="#323C6B"/>
<path d="M81.4301 54.6301L82.26 54.1802L84.08 57.5101L83.25 57.9601L81.4301 54.6301Z" fill="#323C6B"/>
<path d="M88.3101 51.6001L89.14 51.1401L90.5601 53.6802L89.74 54.1401L88.3101 51.6001Z" fill="#323C6B"/>
<path d="M71.03 64.33L71.8101 63.8101L75.16 68.8199L74.37 69.35L71.03 64.33Z" fill="#323C6B"/>
<path d="M78.65 62.3L79.4301 61.76L81.29 64.4301L80.51 64.97L78.65 62.3Z" fill="#323C6B"/>
<path d="M43.74 49.3398H52.63V64.0698H43.74V49.3398Z" fill="#E21F16"/>
<path d="M53.11 64.5502H43.27V48.8701H53.11V64.5502ZM44.21 63.6001H52.16V49.8102H44.21V63.6001Z" fill="#323C6B"/>
<path d="M43.74 55.1401H52.63V58.2802H43.74V55.1401Z" fill="#E21F16"/>
<path d="M53.11 58.7501H43.27V54.6602H53.11V58.7501ZM44.21 57.8002H52.16V55.6101H44.21V57.8002Z" fill="#323C6B"/>
<path d="M81.93 12.1001C81.88 12.1001 81.84 12.1001 81.8 12.0901C81.66 12.0501 81.52 12.0201 81.38 11.9801L81.16 11.9301C81.04 11.9001 80.94 11.8301 80.87 11.7201C80.81 11.6101 80.7899 11.4801 80.8199 11.3601C80.8499 11.2401 80.92 11.13 81.03 11.07C81.14 11 81.27 10.9801 81.39 11.0101L81.6 11.0601C81.75 11.1001 81.9 11.1301 82.05 11.1801C82.16 11.2101 82.2599 11.2701 82.3199 11.3701C82.3799 11.4701 82.41 11.58 82.39 11.69C82.38 11.81 82.32 11.9101 82.24 11.9901C82.15 12.0601 82.04 12.1001 81.93 12.1001Z" fill="#323C6B"/>
<path d="M90.9 18.21C90.83 18.21 90.7699 18.2001 90.6999 18.1701C90.6399 18.1401 90.58 18.0901 90.54 18.0401C88.69 15.8101 86.36 14.04 83.73 12.85C83.67 12.82 83.6199 12.79 83.5699 12.74C83.5299 12.7 83.4899 12.64 83.4699 12.58C83.4499 12.53 83.4299 12.46 83.4399 12.4C83.4399 12.34 83.45 12.27 83.48 12.22C83.5 12.16 83.5399 12.1101 83.5899 12.0601C83.6299 12.0201 83.69 11.99 83.75 11.96C83.81 11.94 83.87 11.93 83.93 11.94C84 11.94 84.06 11.96 84.12 11.98C86.88 13.23 89.33 15.1 91.26 17.44C91.32 17.51 91.36 17.5901 91.37 17.6801C91.38 17.7701 91.3699 17.86 91.3299 17.94C91.2899 18.02 91.23 18.09 91.15 18.14C91.08 18.19 90.99 18.21 90.9 18.21Z" fill="#323C6B"/>
<path d="M71.5401 74.47C71.4101 74.47 71.29 74.43 71.2 74.35C71.1 74.26 71.0501 74.1501 71.0401 74.0201C71.0301 73.9001 71.0701 73.7701 71.1601 73.6801C71.2401 73.5801 71.36 73.5301 71.48 73.5201C71.67 73.5001 71.8501 73.47 72.0301 73.44C72.1501 73.41 72.28 73.4301 72.38 73.5001C72.49 73.5701 72.56 73.6701 72.59 73.8001C72.62 73.9201 72.6001 74.0501 72.5301 74.1501C72.4601 74.2601 72.36 74.33 72.23 74.36C72.02 74.41 71.81 74.44 71.59 74.46C71.58 74.46 71.5601 74.47 71.5401 74.47Z" fill="#323C6B"/>
<path d="M69.47 74.35C69.39 74.34 69.32 74.32 69.24 74.3L69.1301 74.27L63.86 72.5699C63.74 72.5299 63.64 72.4499 63.58 72.3299C63.53 72.2199 63.5201 72.09 63.5501 71.97C63.5901 71.85 63.6801 71.7499 63.7901 71.6999C63.9001 71.6399 64.0301 71.63 64.1501 71.67L69.5101 73.39C69.5401 73.4 69.5801 73.41 69.6201 73.41L69.47 74.35Z" fill="#323C6B"/>
<path d="M32.08 44.96L45.16 47.02V66.39L32.08 64.33" fill="#EEEFEE"/>
<path d="M45.17 63.34V66.39L32.08 64.33V61.27L45.17 63.34Z" fill="#E1E6E9"/>
<path d="M70.89 71.69C70.59 71.69 70.3 71.65 70.01 71.57L52.16 65.83V47.1401H56.23C58.05 47.1301 59.84 47.5801 61.45 48.4301C63.05 49.2801 64.4201 50.5201 65.4301 52.0301H73.46C74.02 52.0301 74.56 52.2601 74.96 52.6501C75.36 53.0501 75.58 53.5901 75.58 54.1501V56.45C75.58 56.54 75.5801 56.62 75.5601 56.71L91.2 49.73C91.66 49.53 92.18 49.5001 92.67 49.6501C93.15 49.8101 93.5501 50.13 93.8101 50.57L95.17 52.87C95.43 53.31 95.52 53.84 95.41 54.34C95.31 54.85 95.01 55.29 94.59 55.59L72.75 71.1C72.21 71.48 71.56 71.69 70.89 71.69ZM53.11 65.1401L70.28 70.6601C70.61 70.7501 70.95 70.77 71.28 70.71C71.61 70.65 71.93 70.52 72.2 70.33L94.04 54.82C94.27 54.66 94.43 54.4201 94.48 54.1401C94.54 53.8701 94.5 53.59 94.35 53.35L92.99 51.0501C92.86 50.8101 92.64 50.6401 92.38 50.5501C92.12 50.4701 91.83 50.49 91.59 50.6L74.8199 58.07C74.4399 58.39 73.95 58.57 73.45 58.57H66.49V57.62H73.46C73.77 57.62 74.07 57.5001 74.29 57.2801C74.51 57.0601 74.63 56.76 74.63 56.44V54.1501C74.63 53.8401 74.51 53.54 74.29 53.32C74.07 53.1 73.77 52.98 73.46 52.98H64.92L64.78 52.7601C63.86 51.3201 62.6 50.14 61.11 49.32C59.61 48.51 57.94 48.08 56.23 48.08H53.1L53.11 65.1401Z" fill="#323C6B"/>
<path d="M45.63 66.95L32 64.79L32.15 63.86L44.6899 65.84V47.42L32 45.42L32.15 44.49L45.63 46.62V66.95Z" fill="#323C6B"/>
<path d="M76.0899 46.8501C72.7499 46.8501 69.4899 45.8601 66.7099 44.0101C63.9299 42.1501 61.77 39.5202 60.49 36.4302C59.22 33.3502 58.88 29.9502 59.53 26.6802C60.18 23.4102 61.79 20.4002 64.15 18.0402C66.51 15.6802 69.52 14.0702 72.8 13.4202C76.07 12.7702 79.46 13.1001 82.55 14.3801C85.63 15.6601 88.27 17.8201 90.12 20.6001C91.98 23.3701 92.9699 26.6401 92.9699 29.9701C92.9599 34.4501 91.18 38.7401 88.02 41.9001C84.85 45.0701 80.5599 46.8501 76.0899 46.8501ZM76.0899 14.0402C72.9399 14.0402 69.86 14.9701 67.24 16.7301C64.62 18.4801 62.57 20.9601 61.37 23.8801C60.16 26.7901 59.8499 29.9901 60.4599 33.0801C61.0799 36.1701 62.5899 39.0101 64.8199 41.2401C67.0499 43.4701 69.89 44.9901 72.98 45.6001C76.07 46.2201 79.2699 45.9001 82.1899 44.6901C85.0999 43.4901 87.5899 41.4501 89.3399 38.8301C91.0899 36.2101 92.02 33.1301 92.02 29.9701C92.02 25.7501 90.34 21.7001 87.35 18.7101C84.36 15.7301 80.3099 14.0502 76.0899 14.0402Z" fill="#323C6B"/>
</svg>
