<svg width="135" height="86" viewBox="0 0 135 86" fill="none" xmlns="http://www.w3.org/2000/svg">
<path d="M0 7C0 3.13 3.134 0 7 0H128C131.866 0 135 3.13 135 7V79C135 82.87 131.866 86 128 86H7C3.134 86 0 82.87 0 79V7Z" fill="#F3F3F3"/>
<path d="M57.619 45.0801H74.618V79.4801H57.619V45.0801Z" fill="#27CCBC"/>
<path d="M74.617 80H57.619C57.48 80 57.347 79.94 57.249 79.85C57.151 79.75 57.096 79.62 57.096 79.48V45.08C57.096 44.94 57.151 44.81 57.249 44.71C57.347 44.62 57.48 44.5601 57.619 44.5601H74.617C74.756 44.5601 74.889 44.62 74.987 44.71C75.085 44.81 75.14 44.94 75.14 45.08V79.48C75.14 79.62 75.085 79.75 74.987 79.85C74.889 79.94 74.756 80 74.617 80ZM58.142 78.95H74.094V45.61H58.142V78.95Z" fill="#323C6B"/>
<path d="M36.521 62.28H53.52V79.48H36.521V62.28Z" fill="#E21F16"/>
<path d="M53.522 80H36.523C36.384 80 36.251 79.94 36.153 79.85C36.055 79.75 36 79.62 36 79.48V62.28C36 62.14 36.055 62.01 36.153 61.91C36.251 61.81 36.384 61.76 36.523 61.76H53.522C53.66 61.76 53.793 61.81 53.892 61.91C53.99 62.01 54.045 62.14 54.045 62.28V79.48C54.045 79.62 53.99 79.75 53.892 79.85C53.793 79.94 53.66 80 53.522 80ZM37.046 78.95H52.999V62.8H37.046V78.95Z" fill="#323C6B"/>
<path d="M78.715 55.5898H95.714V79.4799H78.715V55.5898Z" fill="#0175BD"/>
<path d="M95.713 79.9999H78.714C78.576 79.9999 78.443 79.9399 78.345 79.8499C78.247 79.7499 78.191 79.6199 78.191 79.4799V55.5898C78.191 55.4498 78.247 55.3198 78.345 55.2198C78.443 55.1198 78.576 55.0698 78.714 55.0698H95.713C95.852 55.0698 95.985 55.1198 96.083 55.2198C96.181 55.3198 96.236 55.4498 96.236 55.5898V79.4799C96.236 79.6199 96.181 79.7499 96.083 79.8499C95.985 79.9399 95.852 79.9999 95.713 79.9999ZM79.237 78.9498H95.19V56.1099H79.237V78.9498Z" fill="#323C6B"/>
<path d="M61.087 30.6799H61.077C55.924 29.6799 52.175 26.0799 51.426 21.4799L50.523 15.6099C50.446 15.2399 50.448 14.8599 50.529 14.4899C50.61 14.1199 50.769 13.7699 50.994 13.4599C51.207 13.1699 51.481 12.9199 51.797 12.7399C52.113 12.5599 52.464 12.4399 52.827 12.4099L56.838 12.3599C56.909 12.3499 56.979 12.3599 57.045 12.3799C57.112 12.4099 57.172 12.4499 57.223 12.4899C57.273 12.5399 57.312 12.5999 57.337 12.6699C57.362 12.7299 57.373 12.8099 57.368 12.8799C57.369 12.9399 57.356 13.0098 57.33 13.0798C57.305 13.1398 57.267 13.1999 57.219 13.2499C57.171 13.2999 57.114 13.3399 57.051 13.3599C56.988 13.3899 56.92 13.3999 56.851 13.3999L52.876 13.4498C52.667 13.4798 52.466 13.5499 52.286 13.6599C52.106 13.7699 51.951 13.9098 51.83 14.0798C51.69 14.2698 51.592 14.4899 51.543 14.7199C51.493 14.9499 51.493 15.1899 51.543 15.4199L52.451 21.3198C53.128 25.4798 56.551 28.7399 61.169 29.6399C61.236 29.6399 61.301 29.6598 61.362 29.6898C61.423 29.7098 61.478 29.7499 61.522 29.7999C61.567 29.8499 61.601 29.9099 61.623 29.9699C61.644 30.0299 61.652 30.0999 61.646 30.1699C61.634 30.3099 61.57 30.4399 61.466 30.5299C61.363 30.6299 61.227 30.6799 61.087 30.6799Z" fill="#323C6B"/>
<path d="M71.156 30.6802C71.017 30.6802 70.884 30.6202 70.786 30.5302C70.688 30.4302 70.633 30.2902 70.633 30.1602C70.633 30.0202 70.688 29.8802 70.786 29.7902C70.884 29.6902 71.017 29.6301 71.156 29.6301C73.273 29.3001 75.235 28.3201 76.778 26.8301C78.321 25.3401 79.37 23.4201 79.783 21.3201L80.685 15.4601C80.74 15.2201 80.743 14.9801 80.695 14.7401C80.646 14.5001 80.547 14.2801 80.404 14.0801C80.279 13.9001 80.118 13.7601 79.932 13.6501C79.745 13.5401 79.538 13.4701 79.323 13.4401L75.392 13.4001C75.324 13.4001 75.256 13.3901 75.193 13.3601C75.129 13.3301 75.072 13.2901 75.024 13.2501C74.975 13.2001 74.937 13.1401 74.911 13.0801C74.885 13.0101 74.872 12.9401 74.873 12.8701C74.873 12.8101 74.887 12.7402 74.914 12.6702C74.94 12.6102 74.979 12.5501 75.028 12.5101C75.077 12.4601 75.135 12.4201 75.198 12.3901C75.262 12.3701 75.33 12.3501 75.399 12.3501H75.405L79.38 12.4001C79.75 12.4301 80.109 12.5401 80.432 12.7301C80.755 12.9101 81.035 13.1601 81.253 13.4601C81.48 13.7701 81.639 14.1301 81.718 14.5101C81.798 14.8801 81.796 15.2701 81.713 15.6501L80.816 21.4801C80.067 26.0901 76.318 29.6902 71.266 30.6702C71.229 30.6802 71.193 30.6802 71.156 30.6802Z" fill="#323C6B"/>
<path d="M72.464 37.8799H59.779C59.179 37.8799 58.693 38.3598 58.693 38.9598V43.9999C58.693 44.5999 59.179 45.0798 59.779 45.0798H72.464C73.064 45.0798 73.55 44.5999 73.55 43.9999V38.9598C73.55 38.3598 73.064 37.8799 72.464 37.8799Z" fill="#84879C"/>
<path d="M72.464 45.6101H59.779C59.352 45.6101 58.943 45.4401 58.641 45.1401C58.338 44.8301 58.169 44.4201 58.168 44.0001V38.9601C58.169 38.5401 58.339 38.1301 58.641 37.8301C58.943 37.5201 59.352 37.3501 59.779 37.3501H72.464C72.889 37.3601 73.297 37.5301 73.598 37.8301C73.898 38.1301 74.067 38.5401 74.068 38.9601V44.0001C74.068 44.4201 73.899 44.8301 73.598 45.1301C73.297 45.4301 72.889 45.6001 72.464 45.6101ZM59.779 38.4001C59.63 38.4001 59.487 38.4601 59.381 38.5701C59.276 38.6701 59.216 38.8101 59.216 38.9601V44.0001C59.216 44.1501 59.275 44.2901 59.381 44.4001C59.487 44.5001 59.63 44.5602 59.779 44.5602H72.464C72.612 44.5602 72.754 44.5001 72.859 44.3901C72.963 44.2901 73.022 44.1501 73.022 44.0001V38.9601C73.022 38.8101 72.962 38.6701 72.857 38.5701C72.751 38.4601 72.608 38.4001 72.459 38.4001H59.779Z" fill="#323C6B"/>
<path d="M61.258 40.24H70.986V42.72H61.258V40.24Z" fill="#EEEFEE"/>
<path d="M70.986 43.24H61.257C61.119 43.24 60.986 43.18 60.888 43.09C60.789 42.99 60.734 42.85 60.734 42.72V40.24C60.734 40.11 60.789 39.97 60.888 39.87C60.986 39.78 61.119 39.72 61.257 39.72H70.986C71.125 39.72 71.258 39.78 71.356 39.87C71.454 39.97 71.509 40.11 71.509 40.24V42.72C71.509 42.86 71.453 42.99 71.355 43.09C71.257 43.18 71.124 43.24 70.986 43.24ZM61.78 42.1899H70.463V40.77H61.78V42.1899Z" fill="#323C6B"/>
<path d="M67.387 31.1001C67.613 35.1501 71.078 37.8701 71.078 37.8701H61.258C61.258 37.8701 64.805 34.8401 64.967 31.1301C65.763 31.3301 66.597 31.3201 67.387 31.1001Z" fill="#FCD462"/>
<path d="M71.077 38.3999H61.257C61.151 38.3999 61.046 38.3599 60.958 38.2999C60.871 38.2399 60.804 38.1499 60.767 38.0499C60.73 37.9499 60.724 37.8398 60.751 37.7398C60.778 37.6398 60.836 37.5398 60.917 37.4798C60.951 37.4498 64.294 34.5398 64.444 31.1098C64.447 31.0298 64.468 30.9499 64.505 30.8799C64.542 30.8099 64.594 30.7498 64.657 30.7098C64.72 30.6598 64.792 30.6298 64.869 30.6198C64.946 30.5998 65.025 30.5998 65.101 30.6198C65.809 30.7998 66.552 30.7898 67.255 30.5898C67.33 30.5698 67.408 30.5698 67.484 30.5798C67.56 30.5998 67.632 30.6299 67.695 30.6699C67.757 30.7199 67.807 30.7798 67.844 30.8498C67.88 30.9098 67.9 30.9898 67.904 31.0698C68.113 34.8298 71.365 37.4398 71.398 37.4598C71.484 37.5298 71.546 37.6198 71.577 37.7298C71.607 37.8298 71.605 37.9399 71.569 38.0399C71.533 38.1499 71.466 38.2399 71.378 38.2999C71.289 38.3599 71.183 38.3999 71.074 38.3999H71.077ZM62.528 37.3498H69.76C68.256 35.8098 67.264 33.8498 66.919 31.7298C66.428 31.8098 65.928 31.8099 65.434 31.7499C65.036 33.8599 64.025 35.8098 62.528 37.3498Z" fill="#323C6B"/>
<path d="M98.611 62.42C98.472 62.42 98.339 62.37 98.241 62.27C98.143 62.17 98.088 62.04 98.088 61.9V61.29C98.088 61.15 98.143 61.02 98.241 60.92C98.339 60.82 98.472 60.77 98.611 60.77C98.75 60.77 98.883 60.82 98.981 60.92C99.079 61.02 99.134 61.15 99.134 61.29V61.9C99.134 62.04 99.079 62.17 98.981 62.27C98.883 62.37 98.75 62.42 98.611 62.42Z" fill="#323C6B"/>
<path d="M98.612 59.7401C98.473 59.7401 98.34 59.6901 98.242 59.5901C98.144 59.4901 98.089 59.3601 98.089 59.2201V52.9801H94.951C94.812 52.9801 94.679 52.9201 94.581 52.8201C94.483 52.7201 94.428 52.5901 94.428 52.4501C94.428 52.3101 94.483 52.1801 94.581 52.0801C94.679 51.9801 94.812 51.9302 94.951 51.9302H98.612C98.751 51.9302 98.884 51.9801 98.982 52.0801C99.08 52.1801 99.135 52.3101 99.135 52.4501V59.2201C99.135 59.3601 99.08 59.4901 98.982 59.5901C98.884 59.6901 98.751 59.7401 98.612 59.7401Z" fill="#323C6B"/>
<path d="M47.333 59.8599H46.722C46.584 59.8599 46.451 59.8098 46.352 59.7098C46.254 59.6098 46.199 59.4798 46.199 59.3398C46.199 59.1998 46.254 59.0698 46.352 58.9698C46.451 58.8698 46.584 58.8198 46.722 58.8198H47.333C47.472 58.8198 47.605 58.8698 47.703 58.9698C47.801 59.0698 47.856 59.1998 47.856 59.3398C47.856 59.4798 47.801 59.6098 47.703 59.7098C47.605 59.8098 47.472 59.8599 47.333 59.8599Z" fill="#323C6B"/>
<path d="M44.499 59.8599H37.4C37.261 59.8599 37.128 59.8098 37.03 59.7098C36.932 59.6098 36.877 59.4798 36.877 59.3398C36.877 59.1998 36.932 59.0698 37.03 58.9698C37.128 58.8698 37.261 58.8198 37.4 58.8198H44.499C44.637 58.8198 44.77 58.8698 44.868 58.9698C44.967 59.0698 45.022 59.1998 45.022 59.3398C45.022 59.4798 44.967 59.6098 44.868 59.7098C44.77 59.8098 44.637 59.8599 44.499 59.8599Z" fill="#323C6B"/>
<path d="M57.214 10.52C56.823 12.58 56.627 14.67 56.627 16.76C56.627 25.49 60.877 32.5699 66.121 32.5699C71.365 32.5699 75.615 25.49 75.615 16.76C75.615 14.67 75.419 12.58 75.028 10.52H57.214Z" fill="#FCD462"/>
<path d="M66.119 33.09C60.595 33.09 56.102 25.77 56.102 16.76C56.103 14.63 56.305 12.5 56.704 10.41C56.73 10.29 56.794 10.19 56.887 10.12C56.98 10.04 57.096 10 57.215 10H75.029C75.148 10 75.264 10.04 75.357 10.12C75.449 10.19 75.514 10.29 75.54 10.41C75.938 12.5 76.138 14.63 76.138 16.76C76.138 25.77 71.644 33.09 66.119 33.09ZM57.646 11.05C57.325 12.94 57.161 14.85 57.154 16.76C57.154 25.19 61.179 32.05 66.125 32.05C71.071 32.05 75.095 25.19 75.095 16.76C75.088 14.85 74.923 12.94 74.601 11.05H57.646Z" fill="#323C6B"/>
<path d="M66.121 17.4102L67.267 19.7301L69.829 20.1001L67.975 21.9102L68.412 24.4601L66.121 23.2601L63.83 24.4601L64.268 21.9102L62.414 20.1001L64.976 19.7301L66.121 17.4102Z" fill="#EEEFEE"/>
<path d="M68.412 24.9801C68.328 24.9801 68.244 24.9602 68.169 24.9202L66.118 23.8501L64.07 24.9202C63.983 24.9702 63.886 24.9901 63.789 24.9801C63.691 24.9801 63.598 24.9401 63.519 24.8801C63.44 24.8301 63.378 24.7502 63.341 24.6602C63.305 24.5702 63.294 24.4701 63.31 24.3701L63.702 22.0901L62.049 20.4801C61.979 20.4101 61.929 20.3201 61.906 20.2301C61.883 20.1301 61.886 20.0301 61.916 19.9401C61.946 19.8501 62.001 19.7701 62.076 19.7001C62.15 19.6401 62.241 19.6001 62.338 19.5901L64.627 19.2501L65.652 17.1802C65.699 17.1002 65.768 17.0301 65.851 16.9801C65.933 16.9301 66.027 16.9102 66.122 16.9102C66.218 16.9102 66.311 16.9301 66.394 16.9801C66.477 17.0301 66.545 17.1002 66.593 17.1802L67.617 19.2501L69.907 19.5901C70.003 19.6001 70.094 19.6401 70.169 19.7001C70.243 19.7701 70.298 19.8501 70.329 19.9401C70.359 20.0301 70.362 20.1301 70.339 20.2301C70.315 20.3201 70.266 20.4101 70.196 20.4801L68.537 22.0901L68.929 24.3701C68.942 24.4501 68.938 24.5201 68.918 24.6001C68.898 24.6701 68.862 24.7402 68.813 24.8002C68.764 24.8602 68.703 24.9001 68.634 24.9401C68.565 24.9701 68.489 24.9801 68.413 24.9801H68.412ZM63.537 20.4701L64.632 21.5402C64.692 21.5902 64.738 21.6701 64.765 21.7501C64.791 21.8301 64.797 21.9101 64.783 22.0001L64.525 23.5001L65.879 22.7902C65.954 22.7502 66.037 22.7301 66.122 22.7301C66.206 22.7301 66.29 22.7502 66.365 22.7902L67.719 23.5001L67.459 22.0001C67.445 21.9101 67.452 21.8301 67.478 21.7501C67.504 21.6701 67.55 21.5902 67.611 21.5402L68.706 20.4701L67.192 20.2501C67.109 20.2401 67.029 20.2001 66.961 20.1501C66.892 20.1001 66.837 20.0401 66.799 19.9601L66.118 18.5901L65.442 19.9601C65.405 20.0401 65.349 20.1001 65.281 20.1501C65.212 20.2001 65.133 20.2401 65.049 20.2501L63.537 20.4701Z" fill="#323C6B"/>
<path d="M70.303 71.8599V63.9999C70.303 63.9099 70.32 63.8199 70.354 63.7299C70.389 63.6499 70.439 63.5799 70.502 63.5099C70.565 63.4499 70.64 63.3999 70.722 63.3699C70.805 63.3299 70.893 63.3198 70.983 63.3198C71.072 63.3198 71.16 63.3299 71.243 63.3699C71.325 63.3999 71.4 63.4499 71.463 63.5099C71.527 63.5799 71.577 63.6499 71.611 63.7299C71.645 63.8199 71.663 63.9099 71.663 63.9999V71.8599C71.663 71.9499 71.645 72.0399 71.611 72.1199C71.577 72.2099 71.527 72.2798 71.463 72.3398C71.4 72.4098 71.325 72.4599 71.243 72.4899C71.16 72.5299 71.072 72.5399 70.983 72.5399C70.893 72.5399 70.805 72.5299 70.722 72.4899C70.64 72.4599 70.565 72.4098 70.502 72.3398C70.439 72.2798 70.389 72.2099 70.354 72.1199C70.32 72.0399 70.303 71.9499 70.303 71.8599Z" fill="white"/>
</svg>
