<svg width="65" height="32" viewBox="0 0 65 32" fill="none" xmlns="http://www.w3.org/2000/svg">
<path d="M4.16901 9.16504C5.07801 9.16504 5.841 8.93954 6.457 8.48854C7.077 8.03754 7.51301 7.42704 7.76601 6.65704L6.259 6.23904C6.112 6.71574 5.865 7.08784 5.517 7.35554C5.168 7.62324 4.71901 7.75704 4.16901 7.75704C3.41701 7.75704 2.851 7.51133 2.47 7.02003C2.092 6.52503 1.903 5.86504 1.903 5.04004C1.903 4.21504 2.092 3.55684 2.47 3.06554C2.851 2.57054 3.41701 2.32304 4.16901 2.32304C4.71901 2.32304 5.168 2.45684 5.517 2.72454C5.865 2.98854 6.112 3.36074 6.259 3.84104L7.76601 3.42303C7.51301 2.65303 7.077 2.04254 6.457 1.59154C5.841 1.14054 5.07801 0.915039 4.16901 0.915039C3.37701 0.915039 2.693 1.08734 2.118 1.43204C1.546 1.77674 1.10401 2.25884 0.792007 2.87854C0.484007 3.49824 0.330002 4.21874 0.330002 5.04004C0.330002 5.86134 0.484007 6.58184 0.792007 7.20154C1.10401 7.82124 1.546 8.30334 2.118 8.64804C2.693 8.99274 3.37701 9.16504 4.16901 9.16504ZM8.867 6.10704H12.167V4.95204H8.867V6.10704ZM13.596 9.00004H17.105C17.916 9.00004 18.517 8.77824 18.909 8.33454C19.305 7.88724 19.503 7.30974 19.503 6.60204C19.503 6.22074 19.41 5.87054 19.223 5.55154C19.039 5.22884 18.763 4.99054 18.392 4.83654C18.627 4.69354 18.81 4.49184 18.942 4.23154C19.074 3.97124 19.14 3.66134 19.14 3.30204C19.14 2.95374 19.06 2.60904 18.898 2.26804C18.737 1.92704 18.482 1.64474 18.134 1.42104C17.785 1.19374 17.329 1.08004 16.764 1.08004H13.596V9.00004ZM15.114 4.17104V2.47704H16.742C17.028 2.47704 17.246 2.55954 17.397 2.72454C17.547 2.88954 17.622 3.09304 17.622 3.33504C17.622 3.62474 17.538 3.83734 17.369 3.97304C17.204 4.10504 16.995 4.17104 16.742 4.17104H15.114ZM15.114 7.59204V5.56804H16.951C17.3 5.56804 17.56 5.66154 17.732 5.84854C17.908 6.03184 17.996 6.26474 17.996 6.54704C17.996 6.86604 17.897 7.12084 17.699 7.31154C17.505 7.49854 17.256 7.59204 16.951 7.59204H15.114ZM20.71 9.00004H22.206V1.08004H20.71V9.00004ZM25.692 9.00004H27.188V2.47704H29.685V1.08004H23.195V2.47704H25.692V9.00004ZM0.880005 20H2.37601V12.08H0.880005V20ZM4.02499 20H5.543V14.72L8.98599 20H10.504V12.08H8.98599V17.36L5.543 12.08H4.02499V20ZM12.039 20H14.602C14.664 20 14.792 19.9982 14.987 19.9945C15.181 19.9908 15.368 19.978 15.548 19.956C16.186 19.879 16.726 19.6572 17.17 19.2905C17.614 18.9238 17.951 18.4582 18.182 17.8935C18.413 17.3288 18.529 16.711 18.529 16.04C18.529 15.369 18.413 14.7512 18.182 14.1865C17.951 13.6218 17.614 13.1562 17.17 12.7895C16.726 12.4228 16.186 12.201 15.548 12.124C15.368 12.102 15.181 12.0892 14.987 12.0855C14.792 12.0818 14.664 12.08 14.602 12.08H12.039V20ZM13.557 18.592V13.488H14.602C14.701 13.488 14.834 13.4898 15.003 13.4935C15.172 13.4972 15.324 13.5137 15.46 13.543C15.793 13.609 16.07 13.7648 16.29 14.0105C16.51 14.2562 16.673 14.5568 16.78 14.9125C16.89 15.2682 16.945 15.644 16.945 16.04C16.945 16.4177 16.891 16.7843 16.785 17.14C16.682 17.4957 16.521 17.8 16.301 18.053C16.085 18.306 15.804 18.4673 15.46 18.537C15.324 18.5627 15.172 18.5792 15.003 18.5865C14.834 18.5902 14.701 18.592 14.602 18.592H13.557ZM23.071 20.165C23.709 20.165 24.27 20.0367 24.754 19.78C25.238 19.5197 25.616 19.1548 25.887 18.6855C26.158 18.2162 26.294 17.6643 26.294 17.03V12.08H24.776V17.019C24.776 17.36 24.701 17.6607 24.551 17.921C24.4 18.1813 24.197 18.3867 23.94 18.537C23.683 18.6837 23.394 18.757 23.071 18.757C22.756 18.757 22.468 18.6855 22.208 18.5425C21.951 18.3958 21.746 18.1923 21.592 17.932C21.441 17.6717 21.366 17.3673 21.366 17.019V12.08L19.848 12.091V17.03C19.848 17.6643 19.984 18.2162 20.255 18.6855C20.526 19.1548 20.904 19.5197 21.388 19.78C21.872 20.0367 22.433 20.165 23.071 20.165ZM30.489 20.165C30.892 20.165 31.282 20.1137 31.66 20.011C32.041 19.9083 32.382 19.7543 32.683 19.549C32.984 19.34 33.222 19.0778 33.398 18.7625C33.578 18.4435 33.668 18.0713 33.668 17.646C33.668 17.2463 33.592 16.9163 33.442 16.656C33.295 16.3957 33.107 16.1867 32.876 16.029C32.648 15.8677 32.41 15.743 32.161 15.655C31.911 15.5633 31.684 15.49 31.479 15.435L30.104 15.061C29.935 15.017 29.77 14.962 29.609 14.896C29.447 14.83 29.313 14.7438 29.207 14.6375C29.101 14.5275 29.048 14.3863 29.048 14.214C29.048 14.027 29.112 13.8657 29.24 13.73C29.372 13.5943 29.541 13.4917 29.746 13.422C29.955 13.3487 30.177 13.3157 30.412 13.323C30.771 13.334 31.101 13.4403 31.402 13.642C31.702 13.8437 31.897 14.137 31.985 14.522L33.602 14.247C33.411 13.5027 33.041 12.9325 32.491 12.5365C31.941 12.1405 31.255 11.937 30.434 11.926C29.891 11.9223 29.396 12.0067 28.949 12.179C28.501 12.3513 28.144 12.6135 27.876 12.9655C27.608 13.3175 27.475 13.7593 27.475 14.291C27.475 14.6687 27.537 14.9822 27.662 15.2315C27.79 15.4772 27.949 15.6752 28.14 15.8255C28.331 15.9758 28.527 16.0913 28.729 16.172C28.934 16.2527 29.114 16.315 29.268 16.359L31.325 16.964C31.633 17.0557 31.838 17.1712 31.941 17.3105C32.043 17.4462 32.095 17.5947 32.095 17.756C32.095 17.976 32.019 18.1612 31.869 18.3115C31.722 18.4618 31.534 18.5755 31.303 18.6525C31.072 18.7295 30.833 18.768 30.588 18.768C30.148 18.768 29.755 18.6452 29.411 18.3995C29.066 18.1538 28.839 17.8037 28.729 17.349L27.167 17.58C27.247 18.1153 27.438 18.5773 27.739 18.966C28.043 19.351 28.43 19.648 28.899 19.857C29.372 20.0623 29.902 20.165 30.489 20.165ZM36.713 20H38.209V13.477H40.706V12.08H34.216V13.477H36.713V20ZM41.59 20H43.086V17.316H44.753L46.056 20H47.75L46.32 17.063C46.771 16.8577 47.103 16.5478 47.316 16.1335C47.532 15.7155 47.64 15.237 47.64 14.698C47.64 14.0307 47.477 13.4623 47.151 12.993C46.824 12.5237 46.306 12.234 45.594 12.124C45.492 12.1057 45.374 12.0947 45.242 12.091C45.114 12.0837 45.011 12.08 44.934 12.08H41.59V20ZM43.086 15.919V13.477H44.868C44.945 13.477 45.03 13.4807 45.121 13.488C45.213 13.4953 45.297 13.51 45.374 13.532C45.576 13.587 45.732 13.6805 45.842 13.8125C45.952 13.9408 46.027 14.0857 46.067 14.247C46.111 14.4047 46.133 14.555 46.133 14.698C46.133 14.841 46.111 14.9932 46.067 15.1545C46.027 15.3122 45.952 15.457 45.842 15.589C45.732 15.7173 45.576 15.809 45.374 15.864C45.297 15.886 45.213 15.9007 45.121 15.908C45.03 15.9153 44.945 15.919 44.868 15.919H43.086ZM49.069 20H50.565V12.08H49.069V20ZM52.214 20H57.384V18.603H53.71V16.568H56.724V15.171H53.71V13.477H57.384V12.08H52.214V20ZM61.695 20.165C62.098 20.165 62.488 20.1137 62.866 20.011C63.247 19.9083 63.588 19.7543 63.889 19.549C64.19 19.34 64.428 19.0778 64.604 18.7625C64.784 18.4435 64.874 18.0713 64.874 17.646C64.874 17.2463 64.798 16.9163 64.648 16.656C64.501 16.3957 64.313 16.1867 64.082 16.029C63.854 15.8677 63.616 15.743 63.367 15.655C63.117 15.5633 62.89 15.49 62.685 15.435L61.31 15.061C61.141 15.017 60.976 14.962 60.815 14.896C60.653 14.83 60.519 14.7438 60.413 14.6375C60.307 14.5275 60.254 14.3863 60.254 14.214C60.254 14.027 60.318 13.8657 60.446 13.73C60.578 13.5943 60.747 13.4917 60.952 13.422C61.161 13.3487 61.383 13.3157 61.618 13.323C61.977 13.334 62.307 13.4403 62.608 13.642C62.908 13.8437 63.103 14.137 63.191 14.522L64.808 14.247C64.617 13.5027 64.247 12.9325 63.697 12.5365C63.147 12.1405 62.461 11.937 61.64 11.926C61.097 11.9223 60.602 12.0067 60.155 12.179C59.707 12.3513 59.35 12.6135 59.082 12.9655C58.814 13.3175 58.681 13.7593 58.681 14.291C58.681 14.6687 58.743 14.9822 58.868 15.2315C58.996 15.4772 59.155 15.6752 59.346 15.8255C59.537 15.9758 59.733 16.0913 59.935 16.172C60.14 16.2527 60.32 16.315 60.474 16.359L62.531 16.964C62.839 17.0557 63.044 17.1712 63.147 17.3105C63.249 17.4462 63.301 17.5947 63.301 17.756C63.301 17.976 63.225 18.1612 63.075 18.3115C62.928 18.4618 62.74 18.5755 62.509 18.6525C62.278 18.7295 62.039 18.768 61.794 18.768C61.354 18.768 60.961 18.6452 60.617 18.3995C60.272 18.1538 60.045 17.8037 59.935 17.349L58.373 17.58C58.453 18.1153 58.644 18.5773 58.945 18.966C59.249 19.351 59.636 19.648 60.105 19.857C60.578 20.0623 61.108 20.165 61.695 20.165ZM0.880005 32H5.786V30.603H2.37601V24.08H0.880005V32ZM6.83099 32H8.327V24.08H6.83099V32ZM9.976 32H11.373V27.27L13.672 32H14.2L16.499 27.27V32H17.896V24.08H16.554L13.936 29.338L11.318 24.08H9.976V32ZM19.55 32H21.046V24.08H19.55V32ZM24.532 32H26.028V25.477H28.525V24.08H22.035V25.477H24.532V32ZM29.409 32H34.579V30.603H30.905V28.568H33.919V27.171H30.905V25.477H34.579V24.08H29.409V32ZM35.897 32H38.46C38.522 32 38.651 31.9982 38.845 31.9945C39.039 31.9908 39.226 31.978 39.406 31.956C40.044 31.879 40.585 31.6572 41.028 31.2905C41.472 30.9238 41.809 30.4582 42.04 29.8935C42.271 29.3288 42.387 28.711 42.387 28.04C42.387 27.369 42.271 26.7512 42.04 26.1865C41.809 25.6218 41.472 25.1562 41.028 24.7895C40.585 24.4228 40.044 24.201 39.406 24.124C39.226 24.102 39.039 24.0892 38.845 24.0855C38.651 24.0818 38.522 24.08 38.46 24.08H35.897V32ZM37.415 30.592V25.488H38.46C38.559 25.488 38.693 25.4898 38.861 25.4935C39.03 25.4972 39.182 25.5137 39.318 25.543C39.652 25.609 39.928 25.7648 40.148 26.0105C40.368 26.2562 40.532 26.5568 40.638 26.9125C40.748 27.2682 40.803 27.644 40.803 28.04C40.803 28.4177 40.75 28.7843 40.643 29.14C40.541 29.4957 40.379 29.8 40.159 30.053C39.943 30.306 39.663 30.4673 39.318 30.537C39.182 30.5627 39.03 30.5792 38.861 30.5865C38.693 30.5902 38.559 30.592 38.46 30.592H37.415Z" fill="black"/>
</svg>
