<svg width="19" height="19" viewBox="0 0 19 19" fill="none" xmlns="http://www.w3.org/2000/svg">
<path fill-rule="evenodd" clip-rule="evenodd" d="M9.48999 0.694824C7.09999 0.694824 6.79999 0.705324 5.85999 0.748024C4.92999 0.790824 4.28998 0.939125 3.72998 1.15652C3.14998 1.38122 2.66004 1.68162 2.17004 2.17062C1.68004 2.65942 1.38003 3.15012 1.16003 3.72832C0.940034 4.28762 0.79 4.92692 0.75 5.86272C0.71 6.80072 0.699951 7.10072 0.699951 9.48902C0.699951 11.8774 0.71 12.1762 0.75 13.1142C0.79 14.0504 0.940034 14.6895 1.16003 15.2486C1.38003 15.827 1.68004 16.3177 2.17004 16.8065C2.66004 17.2957 3.14998 17.5969 3.72998 17.8215C4.28998 18.039 4.92999 18.1872 5.85999 18.23C6.79999 18.2727 7.09999 18.2832 9.48999 18.2832C11.88 18.2832 12.18 18.2727 13.11 18.23C14.05 18.1872 14.69 18.039 15.25 17.8215C15.83 17.5969 16.3201 17.2957 16.8101 16.8065C17.3001 16.3177 17.5999 15.827 17.8199 15.2488C18.0399 14.6895 18.19 14.0503 18.23 13.1144C18.27 12.1764 18.28 11.8774 18.28 9.48902C18.28 7.10072 18.27 6.80092 18.23 5.86292C18.19 4.92672 18.0399 4.28762 17.8199 3.72852C17.5999 3.15012 17.3001 2.65942 16.8101 2.17062C16.3201 1.68142 15.83 1.38102 15.25 1.15652C14.69 0.939125 14.05 0.790824 13.11 0.748024C12.18 0.705324 11.88 0.694824 9.48999 0.694824ZM8.69995 2.27962C8.93995 2.27922 9.19999 2.27962 9.48999 2.27962C11.84 2.27962 12.12 2.28802 13.04 2.33022C13.9 2.36942 14.3701 2.51262 14.6801 2.63302C15.0901 2.79242 15.3799 2.98302 15.6899 3.29072C15.9899 3.59852 16.19 3.89172 16.35 4.30212C16.47 4.61172 16.61 5.07712 16.65 5.93452C16.69 6.86152 16.7 7.14002 16.7 9.48702C16.7 11.8339 16.69 12.1124 16.65 13.0394C16.61 13.8969 16.47 14.3622 16.35 14.6719C16.19 15.0823 15.9899 15.3745 15.6899 15.6821C15.3799 15.9899 15.0901 16.1804 14.6801 16.3398C14.3701 16.4607 13.9 16.6037 13.04 16.6429C12.12 16.685 11.84 16.6942 9.48999 16.6942C7.13999 16.6942 6.85994 16.685 5.93994 16.6429C5.07994 16.6033 4.61005 16.46 4.30005 16.3396C3.89005 16.1802 3.60004 15.9897 3.29004 15.6819C2.98004 15.3741 2.79 15.0817 2.63 14.6711C2.51 14.3615 2.36996 13.8961 2.32996 13.0387C2.28996 12.1117 2.28003 11.8332 2.28003 9.48482C2.28003 7.13642 2.28996 6.85932 2.32996 5.93232C2.36996 5.07492 2.51 4.60952 2.63 4.29952C2.79 3.88912 2.98004 3.59602 3.29004 3.28822C3.60004 2.98042 3.89005 2.78982 4.30005 2.63012C4.61005 2.50922 5.07994 2.36632 5.93994 2.32692C6.74994 2.29022 7.05995 2.27922 8.69995 2.27742V2.27962ZM14.1801 3.73982C13.6001 3.73982 13.13 4.21192 13.13 4.79472C13.13 5.37742 13.6001 5.85002 14.1801 5.85002C14.7701 5.85002 15.24 5.37742 15.24 4.79472C15.24 4.21212 14.7701 3.73982 14.1801 3.73982ZM9.48999 4.97282C6.99999 4.97282 4.96997 6.99492 4.96997 9.48902C4.96997 11.983 6.99999 14.0042 9.48999 14.0042C11.98 14.0042 14.01 11.983 14.01 9.48902C14.01 6.99492 11.98 4.97282 9.48999 4.97282ZM9.48999 6.55762C11.11 6.55762 12.42 7.86992 12.42 9.48902C12.42 11.1078 11.11 12.4204 9.48999 12.4204C7.86999 12.4204 6.56006 11.1078 6.56006 9.48902C6.56006 7.86992 7.86999 6.55762 9.48999 6.55762Z" fill="#18191F"/>
</svg>
