<svg width="17" height="15" viewBox="0 0 17 15" fill="none" xmlns="http://www.w3.org/2000/svg">
<path fill-rule="evenodd" clip-rule="evenodd" d="M7.98999 4.40216L8.03003 4.97266L7.44995 4.90276C5.34995 4.63496 3.51996 3.72676 1.95996 2.20136L1.19995 1.44456L1.01001 2.00346C0.59001 3.24936 0.859971 4.56516 1.71997 5.45006C2.17997 5.93916 2.08003 6.00896 1.28003 5.71786C1.01003 5.62476 0.75999 5.55486 0.73999 5.58976C0.65999 5.67126 0.940034 6.73086 1.16003 7.15006C1.46003 7.73226 2.06999 8.30286 2.73999 8.64046L3.30005 8.90836L2.63 8.91996C1.99 8.91996 1.96003 8.93156 2.03003 9.17616C2.26003 9.93296 3.16994 10.7365 4.18994 11.0858L4.90002 11.3303L4.28003 11.7029C3.36003 12.2385 2.26994 12.5413 1.18994 12.5646C0.669941 12.5762 0.23999 12.6228 0.23999 12.6577C0.23999 12.7741 1.64997 13.4262 2.46997 13.6824C4.92997 14.4392 7.84004 14.1132 10.04 12.8207C11.59 11.9008 13.15 10.0727 13.88 8.30286C14.27 7.35966 14.66 5.63636 14.66 4.80966C14.66 4.27406 14.7 4.20416 15.34 3.56376C15.72 3.19116 16.08 2.78356 16.15 2.66716C16.26 2.44596 16.25 2.44596 15.66 2.64386C14.68 2.99316 14.55 2.94666 15.03 2.42266C15.39 2.05006 15.8101 1.37466 15.8101 1.17676C15.8101 1.14186 15.64 1.20006 15.45 1.30486C15.24 1.42126 14.7801 1.59596 14.4301 1.70076L13.8101 1.89866L13.24 1.51446C12.93 1.30486 12.49 1.07196 12.26 1.00206C11.67 0.839062 10.77 0.862363 10.24 1.04866C8.79999 1.57266 7.88999 2.92336 7.98999 4.40216Z" fill="#18191F"/>
</svg>
