<svg width="19" height="19" viewBox="0 0 19 19" fill="none" xmlns="http://www.w3.org/2000/svg">
<path fill-rule="evenodd" clip-rule="evenodd" d="M18.28 9.47672C18.28 10.0715 18.22 10.6654 18.1 11.2443C17.99 11.8094 17.82 12.3643 17.59 12.8947C17.37 13.4157 17.1 13.9178 16.78 14.3861C16.47 14.8514 16.1 15.2879 15.71 15.6858C15.31 16.082 14.87 16.4426 14.41 16.7578C13.94 17.0742 13.43 17.3465 12.91 17.5674C12.38 17.7912 11.83 17.9627 11.26 18.0785C10.68 18.1977 10.08 18.2586 9.48999 18.2586C8.88999 18.2586 8.29997 18.1977 7.71997 18.0785C7.14997 17.9627 6.59995 17.7912 6.06995 17.5674C5.53995 17.3465 5.03995 17.0742 4.56995 16.7578C4.10995 16.4426 3.67002 16.082 3.27002 15.6858C2.87002 15.2879 2.50995 14.8514 2.19995 14.3861C1.87995 13.9178 1.61001 13.4157 1.39001 12.8947C1.16001 12.3643 0.989995 11.8094 0.869995 11.2443C0.759995 10.6654 0.699951 10.0715 0.699951 9.47672C0.699951 8.88162 0.759995 8.28642 0.869995 7.70872C0.989995 7.14362 1.16001 6.58792 1.39001 6.05832C1.61001 5.53692 1.87995 5.03432 2.19995 4.56612C2.50995 4.10042 2.87002 3.66472 3.27002 3.26642C3.67002 2.87012 4.10995 2.51042 4.56995 2.19572C5.03995 1.87792 5.53995 1.60562 6.06995 1.38442C6.59995 1.16012 7.14997 0.988124 7.71997 0.873224C8.29997 0.754924 8.88999 0.694824 9.48999 0.694824C10.08 0.694824 10.68 0.754924 11.26 0.873224C11.83 0.988224 12.38 1.16012 12.91 1.38442C13.43 1.60562 13.94 1.87792 14.41 2.19572C14.87 2.51042 15.31 2.87012 15.71 3.26642C16.1 3.66472 16.47 4.10042 16.78 4.56612C17.1 5.03432 17.37 5.53692 17.59 6.05832C17.82 6.58792 17.99 7.14362 18.1 7.70872C18.22 8.28642 18.28 8.88162 18.28 9.47672ZM6.28003 2.69352C4.19003 3.68102 2.63001 5.60812 2.14001 7.93052C2.34001 7.93222 5.46995 7.97162 9.06995 7.01492C7.76995 4.70882 6.38003 2.82692 6.28003 2.69352ZM9.69995 8.16982C5.82995 9.32582 2.11998 9.24262 1.97998 9.23752C1.97998 9.31812 1.97998 9.39612 1.97998 9.47672C1.97998 11.4033 2.71002 13.1597 3.90002 14.4877C3.90002 14.4838 5.96001 10.8429 10.01 9.53422C10.11 9.50162 10.21 9.47242 10.3 9.44412C10.12 9.01792 9.90995 8.59082 9.69995 8.16982ZM14.45 3.84832C13.13 2.68402 11.39 1.97782 9.48999 1.97782C8.87999 1.97782 8.28997 2.05162 7.71997 2.18802C7.82997 2.33892 9.24003 4.20762 10.53 6.56262C13.36 5.50172 14.43 3.87572 14.45 3.84832ZM10.8199 10.6868C10.7999 10.6923 10.78 10.6971 10.77 10.7031C6.34002 12.2456 4.89 15.3542 4.87 15.3882C6.15 16.3783 7.74999 16.9756 9.48999 16.9756C10.53 16.9756 11.52 16.7641 12.42 16.3813C12.31 15.7261 11.8699 13.4294 10.8199 10.6868ZM13.6899 15.6961C15.3699 14.5597 16.57 12.7554 16.9 10.6653C16.75 10.6156 14.65 9.95142 12.22 10.3394C13.21 13.0426 13.6099 15.2441 13.6899 15.6961ZM11.1 7.68002C11.28 8.03772 11.45 8.40172 11.6 8.76752C11.66 8.89872 11.71 9.02732 11.77 9.15602C14.35 8.83182 16.89 9.37722 17 9.39952C16.98 7.62172 16.34 5.99012 15.29 4.71272C15.27 4.73282 14.07 6.47082 11.1 7.68002Z" fill="#18191F"/>
</svg>
