<svg width="19" height="14" viewBox="0 0 19 14" fill="none" xmlns="http://www.w3.org/2000/svg">
<path fill-rule="evenodd" clip-rule="evenodd" d="M16.38 0.820271C17.14 1.02797 17.7399 1.63987 17.9399 2.41687C18.2999 3.82517 18.3 6.76367 18.3 6.76367C18.3 6.76367 18.2999 9.70197 17.9399 11.1104C17.7399 11.8874 17.14 12.4993 16.38 12.7071C15.01 13.0844 9.51001 13.0844 9.51001 13.0844C9.51001 13.0844 4.01001 13.0844 2.64001 12.7071C1.88001 12.4993 1.28996 11.8874 1.07996 11.1104C0.719956 9.70197 0.719971 6.76367 0.719971 6.76367C0.719971 6.76367 0.719956 3.82517 1.07996 2.41687C1.28996 1.63987 1.88001 1.02797 2.64001 0.820271C4.01001 0.442871 9.51001 0.442871 9.51001 0.442871C9.51001 0.442871 15.01 0.442871 16.38 0.820271ZM7.85999 4.29027V9.78657L12.26 7.03847L7.85999 4.29027Z" fill="#18191F"/>
</svg>
